<?xml version="1.0" encoding="UTF-8"?>
<svg version="1.1" xmlns="http://www.w3.org/2000/svg" width="512" height="512">
<path d="M0 0 C2.01959967 1.87200779 3.6675922 4.00216648 5.39283943 6.14206982 C9.75531146 11.26477542 13.49220154 14.11782222 20.30183601 14.7661314 C24.67208944 14.93205002 29.01332753 14.8357965 33.38300514 14.699543 C35.28763789 14.68687117 37.19231969 14.68027445 39.0969944 14.67941666 C44.08495053 14.66435414 49.06929732 14.58218747 54.05616188 14.480793 C62.03368526 14.32731452 70.01187318 14.26570089 77.9906559 14.2253933 C80.75667851 14.20012605 83.52015222 14.13924156 86.28547096 14.07355118 C99.43541443 13.86375086 109.77168158 15.76078548 119.62909889 25.24251175 C127.65914152 34.36972852 130.10393179 43.68282781 129.91425514 55.6917305 C129.0360772 66.35061528 124.01005745 74.62512243 116.22675514 81.73469925 C104.33763395 91.26671798 90.13360792 90.77023372 75.58953667 90.75909424 C72.77237276 90.75811735 69.95557834 90.77120283 67.13846779 90.78807449 C59.13846479 90.83402653 51.13850708 90.85897799 43.13837624 90.86555862 C38.22254321 90.87057425 33.30710735 90.89480938 28.39140892 90.93088531 C26.5263641 90.94066533 24.6612646 90.94302509 22.79620171 90.93771362 C20.19270382 90.93063799 17.59039456 90.94792916 14.98700905 90.97053909 C14.22326973 90.96236664 13.45953041 90.95419418 12.67264748 90.94577408 C7.51354647 91.02536021 4.54976593 92.18433686 0.60175514 95.48469925 C-2.65008686 100.93940196 -2.84598128 104.50072204 -1.39824486 110.48469925 C1.02706897 114.85026414 3.75124715 116.21405414 8.38771439 117.8688755 C11.94432701 118.85812853 15.34279976 118.89513289 19.01459694 118.8570137 C19.81418327 118.86066437 20.61376961 118.86431503 21.43758583 118.86807632 C24.05893709 118.87612567 26.67965883 118.86261271 29.30097389 118.8479805 C31.14169756 118.84746096 32.98242179 118.84798228 34.82314491 118.84949112 C38.67545835 118.84940163 42.52756154 118.83902446 46.37983131 118.82088089 C51.28391946 118.79827487 56.1876987 118.7976378 61.09182453 118.80439854 C64.89343377 118.80776437 68.69497443 118.80105829 72.49657059 118.7912693 C74.30281972 118.78745589 76.10907653 118.78625281 77.91532898 118.78785515 C98.02887166 118.7908371 115.88941235 116.72622422 132.60175514 104.48469925 C133.30816139 103.9742305 134.01456764 103.46376175 134.74238014 102.93782425 C147.22370596 93.01173049 154.91597929 76.92791038 157.60175514 61.48469925 C157.70511034 59.38142097 157.7887664 57.27707317 157.85175514 55.17219925 C158.14011391 51.06041681 158.57730048 48.77910286 161.47675514 45.79719925 C162.82337537 44.65859353 164.20177877 43.55702158 165.60175514 42.48469925 C167.31158419 41.0906985 169.01979449 39.6947109 170.72675514 38.29719925 C171.66777077 37.54051956 172.60878639 36.78383987 173.57831764 36.0042305 C176.8610962 33.2685817 179.985347 30.40613022 183.10175514 27.48469925 C187.86109231 23.02697571 192.76323252 18.84860112 197.85175514 14.76594925 C200.88762626 12.24755616 203.77785217 9.60857271 206.66425514 6.92219925 C219.61174146 -5.0699911 229.27575227 -12.11155695 247.26191139 -11.78873825 C256.81331286 -11.37085151 264.94620099 -7.33379691 271.60175514 -0.51530075 C280.11009666 10.67731677 281.87193085 20.77315248 280.60175514 34.48469925 C278.30434383 44.90137098 270.90996637 52.59823314 263.22675514 59.54719925 C262.56119606 60.15861771 261.89563698 60.77003616 261.20990944 61.39998245 C257.39500329 64.89367266 253.54234318 68.34083808 249.62128639 71.715168 C246.90689322 74.09354345 244.25603127 76.5397883 241.60175514 78.98469925 C237.69201159 82.5849038 233.74308843 86.12887707 229.72675514 89.60969925 C226.9835202 92.03020066 224.29294271 94.50674102 221.60175514 96.98469925 C217.64315791 100.62886865 213.64998683 104.22383704 209.58613014 107.75032425 C205.54800823 111.27970639 201.58260833 114.89104151 197.60175514 118.48469925 C195.93534663 119.98498604 194.26868161 121.48498797 192.60175514 122.98469925 C191.77675514 123.72719925 190.95175514 124.46969925 190.10175514 125.23469925 C172.60175514 140.98469925 172.60175514 140.98469925 170.10956764 143.22688675 C168.4158262 144.75178169 166.72314345 146.27785327 165.03144264 147.80501175 C162.55865668 150.03581254 160.08043565 152.26045283 157.60175514 154.48469925 C156.61948952 155.37801956 156.61948952 155.37801956 155.61738014 156.28938675 C153.64227554 158.06045162 151.63554915 159.78130499 149.60175514 161.48469925 C148.74323952 162.20657425 147.88472389 162.92844925 147.00019264 163.67219925 C128.88962643 178.12159978 109.13670037 180.96299292 86.63129616 180.82527542 C84.66851756 180.82442729 82.70573802 180.82490791 80.74295998 180.82660294 C75.46087355 180.82745706 70.17899514 180.80992658 64.89695668 180.78888106 C59.3596786 180.77001619 53.82239476 180.76835614 48.28508949 180.76480484 C37.82012515 180.75551303 27.3552558 180.73093832 16.89033312 180.70075637 C4.96761367 180.66712281 -6.95511053 180.65070391 -18.87786567 180.63567007 C-43.38471122 180.60438598 -67.8914727 180.55168166 -92.39824486 180.48469925 C-94.01016913 176.86848582 -95.6209571 173.25176841 -97.23079872 169.63462734 C-98.04049209 167.81592275 -98.85102445 165.99759174 -99.66158104 164.1792717 C-104.47658722 153.35799748 -109.14089032 142.47605302 -113.76128197 131.5705452 C-116.22388962 125.75858957 -118.69442243 119.9500012 -121.16386986 114.14094925 C-121.67377464 112.94097809 -122.18367943 111.74100693 -122.70903587 110.504673 C-128.41137041 97.09042806 -134.15292334 83.69308523 -139.89824486 70.29719925 C-140.40045555 69.12605576 -140.90266624 67.95491226 -141.42009544 66.74827957 C-143.84730902 61.08814551 -146.27493169 55.42818712 -148.70293236 49.76839066 C-152.27611659 41.43877154 -155.84621555 33.1078308 -159.41606712 24.77678299 C-160.93081277 21.24185877 -162.44578072 17.70702983 -163.96074486 14.17219925 C-165.17949486 11.32844925 -165.17949486 11.32844925 -166.39824486 8.48469925 C-150.72093378 -11.66019601 -121.05910419 -23.85635903 -96.45683861 -27.1988945 C-61.61394873 -30.4164305 -27.19207986 -22.91957887 0 0 Z " fill="#000000" transform="translate(230.3982448577881,308.5153007507324)"/>
<path d="M0 0 C1.44898682 0.01244751 1.44898682 0.01244751 2.92724609 0.02514648 C15.69332948 0.32705436 28.03514817 4.7257736 37.46875 13.65625 C38.28859375 14.53796875 38.28859375 14.53796875 39.125 15.4375 C42.2662162 13.98825707 44.86385895 12.20045769 47.625 10.125 C61.23429994 0.4531088 74.93438512 -0.69551158 91.125 0.4375 C95.45874775 1.25703709 99.16320765 2.52273867 103.125 4.4375 C103.90488281 4.788125 104.68476563 5.13875 105.48828125 5.5 C119.98568554 12.7111441 128.837962 25.53766564 134.125 40.4375 C137.84611475 53.20848603 135.99299458 68.70151085 130.125 80.4375 C131.06381012 80.42861755 132.00262024 80.41973511 132.96987915 80.4105835 C141.82706055 80.32941706 150.68416627 80.26949602 159.54163551 80.23025131 C164.09513502 80.20939667 168.64833374 80.18111807 173.20166016 80.13574219 C177.59777143 80.09220832 181.99359379 80.06834692 186.38990402 80.05799103 C188.06522544 80.05061316 189.74053145 80.03620571 191.41572952 80.01457977 C193.76659276 79.98544456 196.11626976 79.98154807 198.46728516 79.98339844 C199.15636963 79.96901733 199.8454541 79.95463623 200.55541992 79.93981934 C205.51880465 79.98195451 208.27963956 81.37802958 212.125 84.4375 C216.38851194 89.10207159 215.5746048 95.12963946 215.55859375 101.08984375 C215.5638356 102.22273331 215.56907745 103.35562286 215.57447815 104.52284241 C215.58089428 106.91585471 215.57956668 109.30889857 215.57104492 111.7019043 C215.56253842 115.35848296 215.59129896 119.01349761 215.62304688 122.66992188 C215.62465911 124.99739537 215.62408094 127.32487162 215.62109375 129.65234375 C215.63232773 130.74312729 215.64356171 131.83391083 215.65513611 132.95774841 C215.60060137 138.91345128 215.37344404 142.87354819 211.125 147.4375 C207.24332606 150.25474766 204.55483755 150.81014299 199.79118347 150.79826355 C198.51377289 150.80238754 197.2363623 150.80651154 195.92024231 150.8107605 C194.51217438 150.80014441 193.10410861 150.78924 191.69604492 150.77807617 C190.20764178 150.7772296 188.71923738 150.77770562 187.23083496 150.77940369 C183.19602571 150.78026391 179.16148438 150.76263385 175.12673736 150.74168181 C170.90801717 150.72291952 166.68929075 150.72116493 162.47053528 150.71760559 C154.48434197 150.70828381 146.49827197 150.68366823 138.51213294 150.65355712 C129.41909978 150.62001726 120.32606071 150.60352814 111.23298109 150.58847082 C92.53023663 150.55711876 73.82766119 150.50210504 55.125 150.4375 C55.125 137.2375 55.125 124.0375 55.125 110.4375 C45.225 110.4375 35.325 110.4375 25.125 110.4375 C25.125 123.6375 25.125 136.8375 25.125 150.4375 C5.54066469 150.52780481 -14.04350198 150.60148458 -33.62799263 150.64474869 C-42.72147197 150.66537117 -51.81481273 150.69348574 -60.90820312 150.73925781 C-68.83430063 150.77913523 -76.76029777 150.8049351 -84.6864928 150.81385398 C-88.88313336 150.81906722 -93.0794868 150.83131351 -97.27603531 150.86042023 C-101.22737562 150.88760374 -105.178311 150.89593915 -109.12973595 150.88993073 C-110.57853967 150.89102966 -112.02735717 150.89896639 -113.47607994 150.9143219 C-115.45759615 150.93429153 -117.43933044 150.92703876 -119.42092896 150.91851807 C-121.08292171 150.92404882 -121.08292171 150.92404882 -122.77849007 150.92969131 C-127.44473265 150.18799046 -130.57228147 147.86276253 -133.72290039 144.41577148 C-135.57413852 139.63016989 -135.32225608 134.87103577 -135.30859375 129.78515625 C-135.3138356 128.65226669 -135.31907745 127.51937714 -135.32447815 126.35215759 C-135.33089428 123.95914529 -135.32956668 121.56610143 -135.32104492 119.1730957 C-135.31253842 115.51651704 -135.34129896 111.86150239 -135.37304688 108.20507812 C-135.37465911 105.87760463 -135.37408094 103.55012838 -135.37109375 101.22265625 C-135.38232773 100.13187271 -135.39356171 99.04108917 -135.40513611 97.91725159 C-135.35060137 91.96154872 -135.12344404 88.00145181 -130.875 83.4375 C-126.77737782 80.35751563 -123.30205739 80.01951574 -118.33081055 80.09692383 C-117.2178083 80.09626671 -117.2178083 80.09626671 -116.08232117 80.09559631 C-113.64184807 80.09767809 -111.2020711 80.1209795 -108.76171875 80.14453125 C-107.06492996 80.1501294 -105.36813632 80.15439846 -103.67134094 80.15739441 C-99.21441157 80.16882601 -94.75777742 80.19827857 -90.30096436 80.23150635 C-85.74951165 80.26224364 -81.19801105 80.27590756 -76.64648438 80.29101562 C-67.72252684 80.32314998 -58.79878801 80.37432587 -49.875 80.4375 C-50.15214844 79.76203125 -50.42929688 79.0865625 -50.71484375 78.390625 C-51.25818359 77.05257812 -51.25818359 77.05257812 -51.8125 75.6875 C-52.17214844 74.80578125 -52.53179687 73.9240625 -52.90234375 73.015625 C-57.08248221 61.93573993 -56.66253205 45.95331214 -52.1953125 35.09765625 C-51.54175781 33.78087891 -51.54175781 33.78087891 -50.875 32.4375 C-50.37742187 31.42558594 -49.87984375 30.41367187 -49.3671875 29.37109375 C-42.01894712 15.7170378 -30.79150623 6.6179949 -16.11328125 1.73828125 C-10.71878134 0.21375976 -5.58291726 -0.06220657 0 0 Z M-18.75 39.375 C-24.05841766 47.02536663 -24.96879999 53.23306989 -23.875 62.4375 C-21.36720685 69.93944533 -16.59746918 74.21985879 -9.9375 78.1875 C-2.60037657 81.18224426 5.26783996 80.55760692 13.0625 80.5 C14.80370117 80.49323242 14.80370117 80.49323242 16.58007812 80.48632812 C19.42843934 80.47460647 22.27669222 80.4581976 25.125 80.4375 C25.18368218 76.4583966 25.2188239 72.47940647 25.25 68.5 C25.26675781 67.38302734 25.28351563 66.26605469 25.30078125 65.11523438 C25.36041649 54.94742536 24.55024888 46.60833673 18.125 38.4375 C11.58540687 32.23327062 5.41704901 30.81904 -3.390625 31.0234375 C-9.82092616 31.78757643 -14.46595553 34.58546356 -18.75 39.375 Z M61.25 39.375 C54.70141296 48.81266956 54.98027371 57.24915111 55.0625 68.375 C55.06701172 69.53580078 55.07152344 70.69660156 55.07617188 71.89257812 C55.08789353 74.74093934 55.1043024 77.58919222 55.125 80.4375 C59.1041034 80.49618218 63.08309353 80.5313239 67.0625 80.5625 C68.17947266 80.57925781 69.29644531 80.59601563 70.44726562 80.61328125 C81.12682859 80.67591798 89.92637283 79.80705251 98.125 72.4375 C103.73282561 66.16042772 105.03291044 60.09075826 104.64453125 51.78125 C103.66105957 45.45153754 100.93957084 40.81303302 96.1875 36.5625 C84.78772951 28.65245517 70.84380593 28.64918157 61.25 39.375 Z " fill="#000000" transform="translate(215.875,-0.4375)"/>
<path d="M0 0 C46.2 0 92.4 0 140 0 C140.2475 19.738125 140.495 39.47625 140.75 59.8125 C140.91387207 69.13786011 140.91387207 69.13786011 141.08105469 78.65161133 C141.13525391 86.28259277 141.13525391 86.28259277 141.14532471 89.8625946 C141.16367237 92.34654074 141.20571612 94.8303843 141.26690674 97.31364441 C141.783017 119.37424268 141.783017 119.37424268 137.45300293 124.97763062 C134.63937968 127.86392713 131.44492994 129.91439726 128 132 C126.00831051 133.54736648 124.10760067 135.17490782 122.1875 136.8125 C121.29804688 137.52921875 120.40859375 138.2459375 119.4921875 138.984375 C116.26926864 141.59099903 113.13219123 144.28543427 110 147 C106.11807874 143.23225289 102.20468119 139.37202211 99 135 C99 134.34 99 133.68 99 133 C98.42121094 132.73703125 97.84242188 132.4740625 97.24609375 132.203125 C94.88686574 130.93939939 93.09702828 129.48383984 91.0625 127.75 C78.1456843 117.56925856 63.41251208 114.56642263 47.36328125 114.48828125 C45.55168518 114.46332581 45.55168518 114.46332581 43.70349121 114.43786621 C39.24000026 114.38051793 34.77621876 114.34792725 30.3125 114.3125 C20.309375 114.209375 10.30625 114.10625 0 114 C0 76.38 0 38.76 0 0 Z " fill="#000000" transform="translate(271,180)"/>
<path d="M0 0 C46.2 0 92.4 0 140 0 C140 33.33 140 66.66 140 101 C134.555 97.535 134.555 97.535 129 94 C126.42329802 92.58480364 123.88492865 91.22432562 121.25 89.9375 C120.23450073 89.43899536 120.23450073 89.43899536 119.19848633 88.93041992 C83.71742445 71.76509039 43.59216944 67.29586174 5.6875 79.23046875 C3 80 3 80 0 80 C0 53.6 0 27.2 0 0 Z " fill="#000000" transform="translate(101,180)"/>
<path d="M0 0 C1.19941711 1.76896667 1.19941711 1.76896667 2.20043945 4.12182617 C2.78074417 5.45520523 2.78074417 5.45520523 3.37277222 6.81552124 C3.7821402 7.79807892 4.19150818 8.7806366 4.61328125 9.79296875 C5.27615646 11.33375595 5.27615646 11.33375595 5.9524231 12.90567017 C7.42012949 16.32700697 8.86619294 19.75706832 10.3125 23.1875 C11.34185204 25.59846794 12.37255361 28.0088601 13.40454102 30.41870117 C15.82488632 36.07657948 18.23021857 41.74070526 20.62967396 47.40746975 C23.33724746 53.80030405 26.06244198 60.18558112 28.7890625 66.5703125 C32.08969514 74.30273516 35.38395905 82.03781076 38.67036438 89.77629089 C43.05548345 100.10065173 47.46032131 110.41622445 51.89188576 120.72071648 C52.73920725 122.69101788 53.58616775 124.66147408 54.43302917 126.63197327 C57.70528693 134.2457491 57.70528693 134.2457491 60.98434448 141.8565979 C62.47911706 145.32256773 63.97033492 148.79004772 65.4609375 152.2578125 C65.90767319 153.29053787 66.35440887 154.32326324 66.81468201 155.38728333 C67.22178909 156.33600815 67.62889618 157.28473297 68.04833984 158.26220703 C68.40310394 159.08528351 68.75786804 159.90835999 69.12338257 160.75637817 C69.93227426 162.82666217 70.51918591 164.83278494 71 167 C41.97886821 182.517726 41.97886821 182.517726 30 180 C23.54591204 177.60959705 21.746016 172.03557271 18.98248291 166.15124512 C15.52343948 158.57732174 12.3275722 150.88371959 9.08822632 143.21414185 C6.81775333 137.83886913 4.53665837 132.46810878 2.25681877 127.09680367 C1.45972526 125.21840674 0.66310957 123.33980777 -0.13340759 121.46116638 C-5.4831027 108.846139 -10.87320911 96.24852001 -16.27252197 83.65466309 C-17.76690338 80.16885898 -19.26020964 76.6825958 -20.75341797 73.19628906 C-21.22483215 72.09721222 -21.69624634 70.99813538 -22.1819458 69.86575317 C-23.10604148 67.7087175 -24.0276042 65.55059469 -24.94647217 63.3913269 C-27.19670348 58.11935495 -29.50047177 52.88395355 -31.91943359 47.68701172 C-32.38661301 46.66594833 -32.85379242 45.64488495 -33.33512878 44.59288025 C-34.20936069 42.68829138 -35.10088386 40.79148863 -36.01411438 38.9052887 C-39.44190513 31.37366446 -40.68428139 23.54755975 -37.75 15.625 C-33.44075152 11.51162645 -28.40201784 9.36990898 -23 7 C-22.22414551 6.65050293 -21.44829102 6.30100586 -20.64892578 5.94091797 C-18.10618425 4.79838404 -15.55514848 3.67698742 -13 2.5625 C-12.17491943 2.19592285 -11.34983887 1.8293457 -10.49975586 1.45166016 C-9.71608643 1.11827637 -8.93241699 0.78489258 -8.125 0.44140625 C-7.42632812 0.13920166 -6.72765625 -0.16300293 -6.0078125 -0.47436523 C-3.53080345 -1.12283319 -2.3781366 -0.93429436 0 0 Z " fill="#000000" transform="translate(40,332)"/>
</svg>
