<svg xmlns="http://www.w3.org/2000/svg" shape-rendering="geometricPrecision" text-rendering="geometricPrecision" image-rendering="optimizeQuality" fill-rule="evenodd" clip-rule="evenodd" viewBox="0 0 455 512.098"><path fill="#231F20" fill-rule="nonzero" d="M321.331.011h-81.882v347.887c0 45.59-32.751 74.918-72.582 74.918-39.832 0-75.238-29.327-75.238-74.918 0-52.673 41.165-80.485 96.044-74.727v-88.153c-7.966-1.333-15.932-1.77-22.576-1.77C75.249 183.248 0 255.393 0 344.794c0 94.722 74.353 167.304 165.534 167.304 80.112 0 165.097-58.868 165.097-169.96V161.109c35.406 35.406 78.341 46.476 124.369 46.476V126.14C398.35 122.151 335.494 84.975 321.331 0v.011z"/></svg>